<svg
  width="124"
  height="104"
  viewBox="0 0 124 104"
  xmlns="http://www.w3.org/2000/svg"
>
  <path fill="#fff" fill-rule="evenodd" clip-rule="evenodd"
    d="M10.7839 0.308167H112.928C118.631 0.308167 123.295 4.97317 123.295 10.6752C123.295 16.3772 118.631 21.0432 112.928 21.0432H10.7839C5.08186 21.0432 0.415863 16.3782 0.415863 10.6762C0.415863 4.97317 5.08186 0.308167 10.7839 0.308167ZM10.7839 83.1832H112.928C118.631 83.1832 123.295 87.8482 123.295 93.5502C123.295 99.2522 118.631 103.917 112.928 103.917H10.7839C5.08186 103.917 0.415863 99.2522 0.415863 93.5502C0.415863 87.8482 5.08186 83.1832 10.7839 83.1832ZM10.7839 41.7462H112.928C118.631 41.7462 123.295 46.4112 123.295 52.1132C123.295 57.8152 118.631 62.4812 112.928 62.4812H10.7839C5.08186 62.4812 0.415863 57.8152 0.415863 52.1132C0.415863 46.4112 5.08186 41.7462 10.7839 41.7462Z"
  />
</svg>